<?xml version="1.0" standalone="no"?><svg xmlns:xlink="http://www.w3.org/1999/xlink" xmlns="http://www.w3.org/2000/svg" viewBox="0 0 1000 500" preserveAspectRatio="xMaxYMax slice"><g transform="scale(0.7320644216691069)"><rect x="0" y="0" width="1366" height="683" fill="#ffffff"/><rect x="170.75" y="0" width="85.375" height="85.375" fill="#ffffff"/><path d="M 170.75 42.69 A 42.69 42.69 0 0 1  213.44 0 L 170.75 42.69 A 42.69 42.69 0 0 0 213.44 0" fill="#ff527b"/><path d="M 213.44 85.38 A 42.69 42.69 0 0 1  256.13 42.69 L 213.44 85.38 A 42.69 42.69 0 0 0 256.13 42.69" fill="#9bacf2"/><path d="M 256.13 0 A 85.38 85.38 0 0 1  341.51 85.38 L 256.13 0 A 85.38 85.38 0 0 0 341.51 85.38" fill="#adbbf4"/><path d="M 426.88 0 A 85.38 85.38 0 0 1  512.26 85.38 L 426.88 0 A 85.38 85.38 0 0 0 512.26 85.38" fill="#fefeff"/><rect x="512.25" y="0" width="85.375" height="85.375" fill="#ffffff"/><path d="M 512.25 42.69 A 42.69 42.69 0 0 1  554.94 0 L 512.25 42.69 A 42.69 42.69 0 0 0 554.94 0" fill="#ff4d77"/><path d="M 554.94 42.69 A 42.69 42.69 0 0 1  597.6300000000001 0 L 554.94 42.69 A 42.69 42.69 0 0 0 597.6300000000001 0" fill="#ff9bb3"/><path d="M 597.63 0 A 85.38 85.38 0 0 1  683.01 85.38 L 597.63 0 A 85.38 85.38 0 0 0 683.01 85.38" fill="#d8dffa"/><rect x="1109.875" y="0" width="85.375" height="85.375" fill="#ffffff"/><path d="M 1109.88 42.69 A 42.69 42.69 0 0 1  1152.5700000000002 85.38 L 1109.88 42.69 A 42.69 42.69 0 0 0 1152.5700000000002 85.38" fill="#ff5f85"/><path d="M 0 85.38 A 85.38 85.38 0 0 1  85.38 170.76 L 0 85.38 A 85.38 85.38 0 0 0 85.38 170.76" fill="#ffbbcb"/><path d="M 85.38 85.38 A 85.38 85.38 0 0 1  170.76 170.76 L 85.38 85.38 A 85.38 85.38 0 0 0 170.76 170.76" fill="#ff96af"/><rect x="768.375" y="85.375" width="85.375" height="85.375" fill="#ffffff"/><path d="M 811.06 128.07 A 42.69 42.69 0 0 1  853.75 85.38 L 811.06 128.07 A 42.69 42.69 0 0 0 853.75 85.38" fill="#ffd3dd"/><path d="M 811.06 128.06 A 42.69 42.69 0 0 1  853.75 170.75 L 811.06 128.06 A 42.69 42.69 0 0 0 853.75 170.75" fill="#ff7999"/><path d="M 853.75 170.76 A 85.38 85.38 0 0 1  939.13 85.38 L 853.75 170.76 A 85.38 85.38 0 0 0 939.13 85.38" fill="#97a9f2"/><path d="M 1109.88 85.38 A 85.38 85.38 0 0 1  1195.2600000000002 170.76 L 1109.88 85.38 A 85.38 85.38 0 0 0 1195.2600000000002 170.76" fill="#ff5880"/><rect x="1195.25" y="85.375" width="85.375" height="85.375" fill="#ffffff"/><path d="M 1195.25 85.38 A 42.69 42.69 0 0 1  1237.94 128.07 L 1195.25 85.38 A 42.69 42.69 0 0 0 1237.94 128.07" fill="#ff9fb6"/><path d="M 170.75 170.75 A 85.38 85.38 0 0 1  256.13 256.13 L 170.75 170.75 A 85.38 85.38 0 0 0 256.13 256.13" fill="#bcc8f6"/><path d="M 256.13 170.75 A 85.38 85.38 0 0 1  341.51 256.13 L 256.13 170.75 A 85.38 85.38 0 0 0 341.51 256.13" fill="#ffd4de"/><rect x="512.25" y="170.75" width="85.375" height="85.375" fill="#ffffff"/><rect x="683" y="170.75" width="85.375" height="85.375" fill="#ffffff"/><path d="M 725.69 213.44 A 42.69 42.69 0 0 1  768.3800000000001 256.13 L 725.69 213.44 A 42.69 42.69 0 0 0 768.3800000000001 256.13" fill="#94a6f1"/><rect x="768.375" y="170.75" width="85.375" height="85.375" fill="#ffffff"/><path d="M 811.06 213.44 A 42.69 42.69 0 0 1  853.75 256.13 L 811.06 213.44 A 42.69 42.69 0 0 0 853.75 256.13" fill="#6983ec"/><path d="M 0 341.51 A 85.38 85.38 0 0 1  85.38 256.13 L 0 341.51 A 85.38 85.38 0 0 0 85.38 256.13" fill="#ff97b0"/><path d="M 85.38 256.13 A 85.38 85.38 0 0 1  170.76 341.51 L 85.38 256.13 A 85.38 85.38 0 0 0 170.76 341.51" fill="#abb9f4"/><path d="M 341.5 256.13 A 85.38 85.38 0 0 1  426.88 341.51 L 341.5 256.13 A 85.38 85.38 0 0 0 426.88 341.51" fill="#bdc8f6"/><rect x="512.25" y="256.125" width="85.375" height="85.375" fill="#ffffff"/><path d="M 512.25 298.82 A 42.69 42.69 0 0 1  554.94 256.13 L 512.25 298.82 A 42.69 42.69 0 0 0 554.94 256.13" fill="#ff6589"/><path d="M 554.94 341.5 A 42.69 42.69 0 0 1  597.6300000000001 298.81 L 554.94 341.5 A 42.69 42.69 0 0 0 597.6300000000001 298.81" fill="#ff3968"/><rect x="768.375" y="256.125" width="85.375" height="85.375" fill="#ffffff"/><path d="M 811.06 341.5 A 42.69 42.69 0 0 1  853.75 298.81 L 811.06 341.5 A 42.69 42.69 0 0 0 853.75 298.81" fill="#ff9db4"/><rect x="939.125" y="256.125" width="85.375" height="85.375" fill="#ffffff"/><rect x="1109.875" y="256.125" width="85.375" height="85.375" fill="#ffffff"/><path d="M 1109.88 341.5 A 42.69 42.69 0 0 1  1152.5700000000002 298.81 L 1109.88 341.5 A 42.69 42.69 0 0 0 1152.5700000000002 298.81" fill="#fff6f8"/><path d="M 1152.56 341.5 A 42.69 42.69 0 0 1  1195.25 298.81 L 1152.56 341.5 A 42.69 42.69 0 0 0 1195.25 298.81" fill="#8499ef"/><rect x="170.75" y="341.5" width="85.375" height="85.375" fill="#ffffff"/><path d="M 170.75 341.5 A 42.69 42.69 0 0 1  213.44 384.19 L 170.75 341.5 A 42.69 42.69 0 0 0 213.44 384.19" fill="#3f5fe6"/><path d="M 213.44 426.88 A 42.69 42.69 0 0 1  256.13 384.19 L 213.44 426.88 A 42.69 42.69 0 0 0 256.13 384.19" fill="#d3dbf9"/><rect x="597.625" y="341.5" width="85.375" height="85.375" fill="#ffffff"/><path d="M 640.31 384.19 A 42.69 42.69 0 0 1  683 426.88 L 640.31 384.19 A 42.69 42.69 0 0 0 683 426.88" fill="#fff1f4"/><path d="M 683 341.5 A 85.38 85.38 0 0 1  768.38 426.88 L 683 341.5 A 85.38 85.38 0 0 0 768.38 426.88" fill="#ff6086"/><rect x="1195.25" y="341.5" width="85.375" height="85.375" fill="#ffffff"/><path d="M 1237.94 384.19 A 42.69 42.69 0 0 1  1280.63 341.5 L 1237.94 384.19 A 42.69 42.69 0 0 0 1280.63 341.5" fill="#ffbbcb"/><path d="M 1195.25 426.88 A 42.69 42.69 0 0 1  1237.94 384.19 L 1195.25 426.88 A 42.69 42.69 0 0 0 1237.94 384.19" fill="#ff83a1"/><path d="M 1237.94 384.19 A 42.69 42.69 0 0 1  1280.63 426.88 L 1237.94 384.19 A 42.69 42.69 0 0 0 1280.63 426.88" fill="#6e87ec"/><rect x="256.125" y="426.875" width="85.375" height="85.375" fill="#ffffff"/><path d="M 298.81 469.57 A 42.69 42.69 0 0 1  341.5 426.88 L 298.81 469.57 A 42.69 42.69 0 0 0 341.5 426.88" fill="#ff7c9b"/><rect x="683" y="426.875" width="85.375" height="85.375" fill="#ffffff"/><path d="M 725.69 426.88 A 42.69 42.69 0 0 1  768.3800000000001 469.57 L 725.69 426.88 A 42.69 42.69 0 0 0 768.3800000000001 469.57" fill="#ff4a75"/><path d="M 683 469.56 A 42.69 42.69 0 0 1  725.69 512.25 L 683 469.56 A 42.69 42.69 0 0 0 725.69 512.25" fill="#ff3b6a"/><path d="M 725.69 512.25 A 42.69 42.69 0 0 1  768.3800000000001 469.56 L 725.69 512.25 A 42.69 42.69 0 0 0 768.3800000000001 469.56" fill="#6680eb"/><rect x="853.75" y="426.875" width="85.375" height="85.375" fill="#ffffff"/><path d="M 853.75 426.88 A 42.69 42.69 0 0 1  896.44 469.57 L 853.75 426.88 A 42.69 42.69 0 0 0 896.44 469.57" fill="#d3dbf9"/><path d="M 853.75 469.56 A 42.69 42.69 0 0 1  896.44 512.25 L 853.75 469.56 A 42.69 42.69 0 0 0 896.44 512.25" fill="#fcfcff"/><path d="M 896.44 512.25 A 42.69 42.69 0 0 1  939.1300000000001 469.56 L 896.44 512.25 A 42.69 42.69 0 0 0 939.1300000000001 469.56" fill="#ff8fa9"/><rect x="939.125" y="426.875" width="85.375" height="85.375" fill="#ffffff"/><path d="M 939.13 426.88 A 42.69 42.69 0 0 1  981.8199999999999 469.57 L 939.13 426.88 A 42.69 42.69 0 0 0 981.8199999999999 469.57" fill="#637deb"/><path d="M 939.13 469.56 A 42.69 42.69 0 0 1  981.8199999999999 512.25 L 939.13 469.56 A 42.69 42.69 0 0 0 981.8199999999999 512.25" fill="#647eeb"/><path d="M 1024.5 512.26 A 85.38 85.38 0 0 1  1109.88 426.88 L 1024.5 512.26 A 85.38 85.38 0 0 0 1109.88 426.88" fill="#b8c4f6"/><path d="M 0 597.63 A 85.38 85.38 0 0 1  85.38 512.25 L 0 597.63 A 85.38 85.38 0 0 0 85.38 512.25" fill="#fff4f7"/><path d="M 512.25 597.63 A 85.38 85.38 0 0 1  597.63 512.25 L 512.25 597.63 A 85.38 85.38 0 0 0 597.63 512.25" fill="#ff809e"/><rect x="597.625" y="512.25" width="85.375" height="85.375" fill="#ffffff"/><path d="M 640.31 512.25 A 42.69 42.69 0 0 1  683 554.94 L 640.31 512.25 A 42.69 42.69 0 0 0 683 554.94" fill="#ffc1d0"/><path d="M 597.63 597.6300000000001 A 42.69 42.69 0 0 1  640.3199999999999 554.94 L 597.63 597.6300000000001 A 42.69 42.69 0 0 0 640.3199999999999 554.94" fill="#d2d9f9"/><path d="M 1024.5 597.63 A 85.38 85.38 0 0 1  1109.88 512.25 L 1024.5 597.63 A 85.38 85.38 0 0 0 1109.88 512.25" fill="#ffafc2"/><path d="M 1280.63 512.25 A 85.38 85.38 0 0 1  1366.0100000000002 597.63 L 1280.63 512.25 A 85.38 85.38 0 0 0 1366.0100000000002 597.63" fill="#ff93ac"/><rect x="768.375" y="597.625" width="85.375" height="85.375" fill="#ffffff"/><rect x="853.75" y="597.625" width="85.375" height="85.375" fill="#ffffff"/><path d="M 853.75 597.63 A 42.69 42.69 0 0 1  896.44 640.3199999999999 L 853.75 597.63 A 42.69 42.69 0 0 0 896.44 640.3199999999999" fill="#6c84ec"/><path d="M 939.13 597.63 A 85.38 85.38 0 0 1  1024.51 683.01 L 939.13 597.63 A 85.38 85.38 0 0 0 1024.51 683.01" fill="#ff82a0"/></g></svg>